<?xml version="1.0" encoding="UTF-8"?>
<svg xmlns="http://www.w3.org/2000/svg" xmlns:xlink="http://www.w3.org/1999/xlink" width="24px" height="24px" viewBox="0 0 24 24" version="1.1">
<defs>
<filter id="alpha" filterUnits="objectBoundingBox" x="0%" y="0%" width="100%" height="100%">
  <feColorMatrix type="matrix" in="SourceGraphic" values="0 0 0 0 1 0 0 0 0 1 0 0 0 0 1 0 0 0 1 0"/>
</filter>
<mask id="mask0">
  <g filter="url(#alpha)">
<rect x="0" y="0" width="24" height="24" style="fill:rgb(0%,0%,0%);fill-opacity:0.4;stroke:none;"/>
  </g>
</mask>
<clipPath id="clip1">
  <rect x="0" y="0" width="24" height="24"/>
</clipPath>
<g id="surface5" clip-path="url(#clip1)">
<path style=" stroke:none;fill-rule:nonzero;fill:rgb(0%,0%,0%);fill-opacity:1;" d="M 11.253906 11.253906 L 12 12.296875 C 12.074219 12.207031 12.132812 12.113281 12.203125 12.015625 M 5.503906 2.46875 C 5.691406 2.3125 5.941406 2.257812 6.175781 2.320312 C 6.417969 2.375 6.632812 2.519531 6.773438 2.722656 L 8.789062 5.53125 C 9.859375 5.230469 10.964844 5.078125 12.074219 5.082031 C 14.304688 5.082031 16.496094 5.675781 18.421875 6.800781 C 20.304688 7.871094 21.875 9.414062 22.976562 11.277344 C 23.183594 11.53125 23.289062 11.847656 23.273438 12.175781 C 23.242188 12.492188 23.144531 12.800781 22.976562 13.070312 L 22.753906 13.445312 C 22.179688 14.386719 21.476562 15.238281 20.660156 15.980469 C 19.796875 16.851562 18.789062 17.5625 17.675781 18.070312 L 19.316406 20.386719 C 19.472656 20.574219 19.527344 20.824219 19.464844 21.058594 C 19.433594 21.304688 19.296875 21.523438 19.09375 21.65625 L 18.570312 22.03125 C 18.382812 22.1875 18.132812 22.242188 17.898438 22.179688 C 17.660156 22.128906 17.449219 22 17.300781 21.804688 L 4.757812 4.109375 C 4.601562 3.925781 4.546875 3.675781 4.609375 3.4375 C 4.640625 3.195312 4.777344 2.976562 4.980469 2.839844 Z M 4.832031 7.203125 L 7.074219 10.410156 C 6.859375 10.957031 6.757812 11.542969 6.773438 12.128906 C 6.773438 13.042969 7.003906 13.941406 7.445312 14.742188 C 7.914062 15.546875 8.582031 16.21875 9.386719 16.683594 C 10.160156 17.199219 11.074219 17.457031 12 17.429688 L 13.195312 19.148438 C 12.800781 19.210938 12.402344 19.238281 12 19.222656 C 9.769531 19.21875 7.582031 18.628906 5.65625 17.503906 C 3.773438 16.433594 2.203125 14.890625 1.097656 13.023438 L 1.023438 12.949219 C 0.871094 12.707031 0.792969 12.421875 0.800781 12.128906 C 0.832031 11.8125 0.933594 11.503906 1.097656 11.234375 L 1.246094 10.933594 C 2.140625 9.433594 3.367188 8.15625 4.832031 7.203125 M 12.308594 6.722656 L 12.074219 6.726562 C 11.386719 6.738281 10.707031 6.863281 10.058594 7.097656 L 10.804688 8.144531 C 10.804688 8.144531 11.84375 10.90625 15.359375 14.488281 L 16.105469 15.535156 C 16.464844 15.039062 16.78125 14.511719 17.046875 13.957031 L 17.046875 13.988281 C 17.273438 13.386719 17.386719 12.742188 17.375 12.101562 C 17.386719 11.152344 17.125 10.21875 16.628906 9.414062 C 16.160156 8.609375 15.492188 7.9375 14.6875 7.472656 C 13.914062 6.957031 13.003906 6.695312 12.074219 6.726562 Z M 12.308594 6.722656 "/>
</g>
</defs>
<g id="surface1">
<path style=" stroke:none;fill-rule:nonzero;fill:rgb(0%,0%,0%);fill-opacity:1;" d="M 11.253906 11.253906 L 12 12.296875 C 12.074219 12.207031 12.132812 12.113281 12.203125 12.015625 M 7.539062 11.28125 L 10.601562 15.609375 C 9.675781 15.367188 8.855469 14.816406 8.289062 14.042969 C 7.707031 13.246094 7.441406 12.261719 7.539062 11.28125 M 10.304688 7.695312 C 10.808594 7.535156 11.34375 7.484375 11.871094 7.546875 C 12.414062 7.625 12.9375 7.777344 13.441406 7.996094 C 12.988281 8.007812 12.5625 8.195312 12.246094 8.519531 C 11.898438 8.8125 11.703125 9.253906 11.722656 9.710938 C 11.738281 10.160156 11.921875 10.589844 12.246094 10.90625 C 12.542969 11.253906 12.980469 11.445312 13.441406 11.429688 C 13.886719 11.398438 14.308594 11.214844 14.636719 10.90625 C 14.984375 10.609375 15.175781 10.167969 15.15625 9.710938 C 15.503906 10.378906 15.660156 11.125 15.605469 11.878906 C 15.578125 12.65625 15.320312 13.410156 14.859375 14.042969 C 11.34375 10.457031 10.304688 7.695312 10.304688 7.695312 "/>
<use xlink:href="#surface5" mask="url(#mask0)"/>
</g>
</svg>
