<?xml version="1.0" encoding="UTF-8"?>
<svg xmlns="http://www.w3.org/2000/svg" xmlns:xlink="http://www.w3.org/1999/xlink" width="24px" height="24px" viewBox="0 0 24 24" version="1.1">
<defs>
<filter id="alpha" filterUnits="objectBoundingBox" x="0%" y="0%" width="100%" height="100%">
  <feColorMatrix type="matrix" in="SourceGraphic" values="0 0 0 0 1 0 0 0 0 1 0 0 0 0 1 0 0 0 1 0"/>
</filter>
<mask id="mask0">
  <g filter="url(#alpha)">
<rect x="0" y="0" width="24" height="24" style="fill:rgb(0%,0%,0%);fill-opacity:0.4;stroke:none;"/>
  </g>
</mask>
<clipPath id="clip1">
  <rect x="0" y="0" width="24" height="24"/>
</clipPath>
<g id="surface5" clip-path="url(#clip1)">
<path style=" stroke:none;fill-rule:nonzero;fill:rgb(0%,0%,0%);fill-opacity:1;" d="M 23.707031 10.664062 C 23.902344 10.972656 24 11.304688 24 11.667969 C 24 12.027344 23.902344 12.359375 23.707031 12.667969 C 22.515625 14.695312 20.890625 16.304688 18.832031 17.5 C 16.75 18.722656 14.472656 19.335938 12 19.335938 C 9.527344 19.335938 7.25 18.722656 5.167969 17.5 C 3.109375 16.304688 1.484375 14.695312 0.292969 12.667969 C 0.0976562 12.359375 0 12.027344 0 11.667969 C 0 11.304688 0.0976562 10.972656 0.292969 10.664062 C 1.484375 8.640625 3.109375 7.027344 5.167969 5.835938 C 7.25 4.609375 9.527344 4 12 4 C 14.472656 4 16.75 4.609375 18.832031 5.835938 C 20.890625 7.027344 22.515625 8.640625 23.707031 10.664062 Z M 12 17.332031 C 13.027344 17.332031 13.972656 17.074219 14.835938 16.5625 C 15.695312 16.046875 16.382812 15.359375 16.894531 14.5 C 17.410156 13.640625 17.667969 12.695312 17.667969 11.667969 C 17.667969 10.640625 17.410156 9.695312 16.894531 8.835938 C 16.382812 7.972656 15.695312 7.285156 14.835938 6.769531 C 13.972656 6.257812 13.027344 6 12 6 C 10.972656 6 10.027344 6.257812 9.164062 6.769531 C 8.304688 7.285156 7.617188 7.972656 7.105469 8.835938 C 6.589844 9.695312 6.332031 10.640625 6.332031 11.667969 C 6.332031 12.695312 6.589844 13.640625 7.105469 14.5 C 7.617188 15.359375 8.304688 16.046875 9.164062 16.5625 C 10.027344 17.074219 10.972656 17.332031 12 17.332031 Z M 12 17.332031 "/>
</g>
</defs>
<g id="surface1">
<path style=" stroke:none;fill-rule:nonzero;fill:rgb(0%,0%,0%);fill-opacity:1;" d="M 16.335938 11.667969 C 16.335938 12.863281 15.910156 13.882812 15.0625 14.730469 C 14.214844 15.574219 13.195312 16 12 16 C 10.804688 16 9.785156 15.574219 8.9375 14.730469 C 8.089844 13.882812 7.664062 12.863281 7.664062 11.667969 C 7.664062 10.945312 7.832031 10.265625 8.167969 9.625 C 8.167969 10.125 8.339844 10.546875 8.6875 10.894531 C 9.035156 11.242188 9.457031 11.417969 9.957031 11.417969 C 10.460938 11.417969 10.882812 11.242188 11.230469 10.894531 C 11.574219 10.546875 11.75 10.125 11.75 9.625 C 11.75 9.125 11.574219 8.703125 11.230469 8.355469 C 10.882812 8.007812 10.460938 7.832031 9.957031 7.832031 C 10.597656 7.5 11.277344 7.335938 12 7.335938 C 13.195312 7.335938 14.214844 7.757812 15.0625 8.605469 C 15.910156 9.453125 16.335938 10.472656 16.335938 11.667969 Z M 16.335938 11.667969 "/>
<use xlink:href="#surface5" mask="url(#mask0)"/>
</g>
</svg>
